<?xml version="1.0" encoding="UTF-8" standalone="no"?>
<!DOCTYPE svg PUBLIC "-//W3C//DTD SVG 1.1//EN" "http://www.w3.org/Graphics/SVG/1.1/DTD/svg11.dtd">
<svg version="1.1" xmlns="http://www.w3.org/2000/svg" xmlns:xlink="http://www.w3.org/1999/xlink" preserveAspectRatio="xMidYMid meet" viewBox="0 0 640 640" width="640" height="640"><defs><path d="M630 0C635.52 0 640 4.48 640 10C640 136 640 504 640 630C640 635.52 635.52 640 630 640C504 640 136 640 10 640C4.48 640 0 635.52 0 630C0 504 0 136 0 10C0 4.48 4.48 0 10 0C136 0 504 0 630 0Z" id="b96RAWLQn"></path><path d="M51.19 594.26L51.19 45.74L588.81 45.74L588.81 594.26L51.19 594.26ZM118.39 525.69L219.2 422.85L286.4 457.13L387.2 320L521.61 502.84L521.61 114.31L118.39 114.31L118.39 525.69ZM240.82 191.64L243.19 191.89L245.53 192.23L247.85 192.66L250.13 193.19L252.37 193.8L254.58 194.5L256.75 195.29L258.88 196.16L260.97 197.11L263.02 198.14L265.02 199.25L266.97 200.43L268.87 201.69L270.72 203.02L272.52 204.42L274.26 205.88L275.95 207.42L277.58 209.01L279.14 210.67L280.64 212.39L282.08 214.17L283.45 216L284.76 217.89L285.99 219.83L287.15 221.82L288.24 223.87L289.25 225.95L290.18 228.08L291.03 230.26L291.8 232.47L292.49 234.73L293.09 237.02L293.6 239.34L294.03 241.7L294.36 244.1L294.6 246.52L294.75 248.96L294.8 251.44L294.75 253.91L294.6 256.36L294.36 258.78L294.03 261.17L293.6 263.53L293.09 265.85L292.49 268.14L291.8 270.4L291.03 272.61L290.18 274.79L289.25 276.92L288.24 279.01L287.15 281.05L285.99 283.04L284.76 284.98L283.45 286.87L282.08 288.7L280.64 290.48L279.14 292.2L277.58 293.86L275.95 295.45L274.26 296.99L272.52 298.45L270.72 299.85L268.87 301.18L266.97 302.44L265.02 303.62L263.02 304.73L260.97 305.76L258.88 306.71L256.75 307.58L254.58 308.37L252.37 309.07L250.13 309.69L247.85 310.21L245.53 310.64L243.19 310.98L240.82 311.23L238.42 311.38L236 311.43L233.57 311.38L231.17 311.23L228.8 310.98L226.46 310.64L224.15 310.21L221.87 309.69L219.62 309.07L217.41 308.37L215.24 307.58L213.11 306.71L211.02 305.76L208.97 304.73L206.97 303.62L205.02 302.44L203.12 301.18L201.27 299.85L199.47 298.45L197.73 296.99L196.04 295.45L194.42 293.86L192.85 292.2L191.35 290.48L189.91 288.7L188.54 286.87L187.24 284.98L186 283.04L184.84 281.05L183.76 279.01L182.75 276.92L181.81 274.79L180.96 272.61L180.19 270.4L179.5 268.14L178.9 265.85L178.39 263.53L177.96 261.17L177.63 258.78L177.39 256.36L177.24 253.91L177.19 251.44L177.24 248.96L177.39 246.52L177.63 244.1L177.96 241.7L178.39 239.34L178.9 237.02L179.5 234.73L180.19 232.47L180.96 230.26L181.81 228.08L182.75 225.95L183.76 223.87L184.84 221.82L186 219.83L187.24 217.89L188.54 216L189.91 214.17L191.35 212.39L192.85 210.67L194.42 209.01L196.04 207.42L197.73 205.88L199.47 204.42L201.27 203.02L203.12 201.69L205.02 200.43L206.97 199.25L208.97 198.14L211.02 197.11L213.11 196.16L215.24 195.29L217.41 194.5L219.62 193.8L221.87 193.19L224.15 192.66L226.46 192.23L228.8 191.89L231.17 191.64L233.57 191.49L236 191.44L238.42 191.49L240.82 191.64Z" id="ba1r5KhWT"></path></defs><g><g><g><use xlink:href="#b96RAWLQn" opacity="1" fill="#1f3446" fill-opacity="1"></use></g><g><use xlink:href="#ba1r5KhWT" opacity="1" fill="#1df588" fill-opacity="1"></use></g></g></g></svg>